<?xml version="1.0" encoding="utf-8"?>
<!-- Generator: Adobe Illustrator 16.0.3, SVG Export Plug-In . SVG Version: 6.00 Build 0)  -->
<!DOCTYPE svg PUBLIC "-//W3C//DTD SVG 1.1//EN" "http://www.w3.org/Graphics/SVG/1.1/DTD/svg11.dtd">
<svg version="1.1" id="レイヤー_1" xmlns="http://www.w3.org/2000/svg" xmlns:xlink="http://www.w3.org/1999/xlink" x="0px"
	 y="0px" width="187px" height="187px" viewBox="0 0 187 187" enable-background="new 0 0 187 187" xml:space="preserve">
<g>
	<path fill="#3E3A39" d="M93.5,73.268c-11.156,0-20.232,9.076-20.232,20.232s9.076,20.232,20.232,20.232s20.232-9.076,20.232-20.232
		S104.656,73.268,93.5,73.268z"/>
	<path fill="#3E3A39" d="M118.92,43.698H68.08c-13.444,0-24.382,10.938-24.382,24.382v50.84c0,13.444,10.938,24.382,24.382,24.382
		h50.84c13.444,0,24.382-10.938,24.382-24.382V68.08C143.302,54.636,132.364,43.698,118.92,43.698z M93.5,125.145
		c-17.449,0-31.645-14.195-31.645-31.645S76.051,61.855,93.5,61.855s31.645,14.195,31.645,31.645S110.949,125.145,93.5,125.145z
		 M126.212,68.479c-4.214,0-7.629-3.415-7.629-7.629c0-4.213,3.415-7.629,7.629-7.629c4.213,0,7.629,3.416,7.629,7.629
		C133.841,65.064,130.425,68.479,126.212,68.479z"/>
	<path fill="#3E3A39" d="M140.189,10.497H46.812c-19.973,0-36.314,16.342-36.314,36.313v93.379
		c0,19.972,16.342,36.313,36.314,36.313h93.378c19.972,0,36.313-16.342,36.313-36.313V46.811
		C176.503,26.839,160.161,10.497,140.189,10.497z M154.715,118.92c0,19.737-16.058,35.795-35.795,35.795H68.08
		c-19.737,0-35.795-16.058-35.795-35.795V68.08c0-19.737,16.058-35.795,35.795-35.795h50.84c19.737,0,35.795,16.058,35.795,35.795
		V118.92z"/>
</g>
</svg>
