<?xml version="1.0" encoding="utf-8"?>
<!-- Generator: Adobe Illustrator 16.0.3, SVG Export Plug-In . SVG Version: 6.00 Build 0)  -->
<!DOCTYPE svg PUBLIC "-//W3C//DTD SVG 1.1//EN" "http://www.w3.org/Graphics/SVG/1.1/DTD/svg11.dtd">
<svg version="1.1" id="レイヤー_1" xmlns="http://www.w3.org/2000/svg" xmlns:xlink="http://www.w3.org/1999/xlink" x="0px"
	 y="0px" width="187px" height="187px" viewBox="0 0 187 187" enable-background="new 0 0 187 187" xml:space="preserve">
<path fill="#3E3A39" d="M140.188,10.497H46.811c-19.973,0-36.313,16.342-36.313,36.313v93.379c0,19.972,16.341,36.313,36.313,36.313
	h93.378c19.973,0,36.314-16.342,36.314-36.313V46.811C176.503,26.839,160.161,10.497,140.188,10.497z M117.854,93.598h-15.543
	c0,25.018,0,56.282,0,56.282H78.476c0,0,0-30.98,0-56.282H67.163V74.108h11.313c0-5.954,0-10.327,0-11.979
	c0-9.874,3.031-25.009,23.702-25.009c15.277,0,17.65,0,17.65,0v19.348c0,0-9.75,0-11.98,0c-2.239,0-5.536,0.657-5.536,6.977
	c0,1.217,0,5.137,0,10.664h17.525L117.854,93.598z"/>
</svg>
