<?xml version="1.0" encoding="utf-8"?>
<!-- Generator: Adobe Illustrator 16.0.3, SVG Export Plug-In . SVG Version: 6.00 Build 0)  -->
<!DOCTYPE svg PUBLIC "-//W3C//DTD SVG 1.1//EN" "http://www.w3.org/Graphics/SVG/1.1/DTD/svg11.dtd">
<svg version="1.1" id="レイヤー_1" xmlns="http://www.w3.org/2000/svg" xmlns:xlink="http://www.w3.org/1999/xlink" x="0px"
	 y="0px" width="187px" height="187px" viewBox="0 0 187 187" enable-background="new 0 0 187 187" xml:space="preserve">
<path fill="#3E3A39" d="M186.711,35.726c0,0-14.607,6.389-20.947,6.276c-0.152-0.386-0.307-0.77-0.473-1.148
	c3.549-2.955,14.539-12.608,15.92-19.976c0,0-13.59,7.491-22.602,9.505c-7.254-8.188-17.84-13.354-29.641-13.354
	c-21.867,0-39.593,17.727-39.593,39.594c0,2.696,0.272,5.329,0.785,7.874c-13.719-0.353-47.435-5.182-78.873-40.869
	c0,0-17.048,30.246,11.548,52.792c0,0-9.897,1.1-15.947-4.949c0,0-2.749,24.747,28.047,38.494c0,0-8.249,2.751-14.849,1.65
	c0,0,5.499,22.545,35.194,26.944c0,0-19.797,17.599-54.991,15.398c0,0,41.243,29.146,101.183,8.799
	c59.941-20.347,68.191-95.136,67.092-106.134C168.564,56.622,180.662,47.824,186.711,35.726z"/>
</svg>
