<?xml version="1.0" encoding="utf-8"?>
<!-- Generator: Adobe Illustrator 16.0.3, SVG Export Plug-In . SVG Version: 6.00 Build 0)  -->
<!DOCTYPE svg PUBLIC "-//W3C//DTD SVG 1.1//EN" "http://www.w3.org/Graphics/SVG/1.1/DTD/svg11.dtd">
<svg version="1.1" id="レイヤー_1" xmlns="http://www.w3.org/2000/svg" xmlns:xlink="http://www.w3.org/1999/xlink" x="0px"
	 y="0px" width="673px" height="303px" viewBox="0 0 673 303" enable-background="new 0 0 673 303" xml:space="preserve">
<g>
	<g>
		<g>
			<g>
				<path fill="#FFFFFF" d="M441.666,65.552l-34.842-29.357c-7.186-6.104-10.771-13.148-10.771-21.142
					c0-8.494,6.09-12.779,18.24-12.863V0.354c-11.367,0-20.951,2.397-28.719,7.201c-8.826,5.408-13.238,12.435-13.238,21.069
					c0,11.117,5.383,21.213,16.162,30.274l34.826,29.363c5.102,4.313,7.656,10.457,7.656,18.419c0,4.992-2.098,9.214-6.297,12.675
					c-4.074,3.343-9.445,5.014-16.137,5.014v1.818c14.252,0,26.002-2.485,35.24-7.461c10.924-5.784,16.369-13.505,16.369-23.17
					C460.156,84.343,453.996,74.346,441.666,65.552z"/>
			</g>
			<path fill="#FFFFFF" d="M260.291,14.803c-1.94-6.094-3.448-9.877-4.532-11.339c-0.976-1.47-2.422-2.203-4.368-2.203h-38.547
				v1.825c8.751,0,14.397,4.127,16.964,12.396l32.455,98.953c2.373,7.236,6.147,10.845,11.311,10.845h11.398l5.44-17.386
				L260.291,14.803z"/>
			<g>
				<path fill="#FFFFFF" d="M356.086,108.082l-8.6-26.763l0,0l-21.534-66.516c-0.789-2.375-1.189-4.241-1.189-5.59
					c0-4.084,3.98-6.127,11.943-6.127V1.261h-58.213v1.825c8.763,0,14.415,4.127,16.963,12.396l32.461,98.953
					c2.379,7.236,6.147,10.845,11.319,10.845h11.391L356.086,108.082L356.086,108.082z"/>
			</g>
		</g>
		<g>
			<g>
				<g>
					<g>
						<path fill="#FFFFFF" d="M22.968,220.187c3.093,0,5.746,0.419,7.975,1.252c2.266,0.808,4.395,1.208,6.385,1.208
							c2.06,0,3.092-0.657,3.092-1.973h0.965l0.913,14.886h-0.97c0-1.039-0.257-2.26-0.771-3.674
							c-0.5-1.421-1.352-2.986-2.541-4.695c-1.189-1.702-3.086-3.136-5.671-4.287c-2.591-1.177-5.652-1.747-9.188-1.747
							c-6.567,0-9.859,2.272-9.859,6.83c0,4.23,1.909,7.962,5.715,11.191l18.46,15.561c6.541,4.67,9.802,9.966,9.802,15.905
							c0,5.127-2.892,9.208-8.669,12.275c-4.901,2.642-11.13,3.956-18.685,3.956c-4.826,0-8.995-1.151-12.463-3.468
							c-0.977-0.645-1.878-0.97-2.717-0.97c-1.377,0-2.41,0.77-3.086,2.322c-0.193,0.45-0.294,0.988-0.294,1.646H0.397l0.288-15.079
							h0.97c0,0.771,0.156,1.69,0.476,2.755c0.82,2.666,2.517,5.213,5.127,7.636c1.289,1.189,3.042,2.185,5.271,2.992
							c2.222,0.802,4.694,1.214,7.393,1.214c3.542,0,6.391-0.888,8.551-2.653c2.222-1.847,3.342-4.087,3.342-6.723
							c0-4.225-1.352-7.486-4.063-9.771L9.292,251.221c-5.702-4.807-8.557-10.152-8.557-16.049c0-4.576,2.341-8.301,7.005-11.167
							C11.864,221.457,16.934,220.187,22.968,220.187z"/>
						<path fill="#FFFFFF" d="M235.59,253.537v-25.139c0-4.507-2.585-6.76-7.736-6.76v-0.965h16.438v0.965
							c-5.164,0-7.743,2.253-7.743,6.76v25.139c0,10.185-1.314,17.933-3.956,23.247c-3.355,6.724-9.127,10.091-17.302,10.091
							c-10.121,0-17.732-2.992-22.821-8.982c-4.119-4.863-6.179-12.344-6.179-22.415v-27.079c0-4.507-2.585-6.76-7.736-6.76v-0.965
							h30.928v0.965c-5.151,0-7.73,2.253-7.73,6.76v38.671c0,12.57,4.514,18.854,13.539,18.854c7.794,0,13.276-3.191,16.432-9.576
							C234.295,271.157,235.59,263.559,235.59,253.537z"/>
						<path fill="#FFFFFF" d="M396.748,220.674h20.455c1.014,0,1.783,0.376,2.291,1.152c0.582,0.789,1.389,2.792,2.41,6.021
							l15.455,47.748l9.34-28.644l-6.148-18.741c-1.352-4.382-4.355-6.572-8.994-6.572v-0.965h30.854v0.965
							c-4.227,0-6.322,1.089-6.322,3.255c0,0.701,0.199,1.69,0.613,2.954l15.484,47.822l15.588-47.709
							c0.213-1.215,0.313-2.172,0.313-2.867c0-2.304-2.266-3.455-6.793-3.455v-0.965h15.994v0.965c-4.568,0-7.574,2.19-8.988,6.572
							l-15.373,48.292l-3.131,9.902h-6.047c-2.734,0-4.744-1.915-5.996-5.752l-10.74-32.6l-8.914,28.437l-3.105,9.915h-6.045
							c-2.742,0-4.732-1.915-5.998-5.752l-17.207-52.442c-1.346-4.382-4.35-6.572-8.994-6.572V220.674z"/>
						<path fill="#FFFFFF" d="M648.297,220.187c3.086,0,5.74,0.419,7.969,1.252c2.279,0.808,4.406,1.208,6.385,1.208
							c2.066,0,3.092-0.657,3.092-1.973h0.957l0.922,14.886h-0.953c0-1.039-0.268-2.26-0.775-3.674
							c-0.514-1.421-1.363-2.986-2.561-4.695c-1.189-1.702-3.072-3.136-5.652-4.287c-2.592-1.177-5.658-1.747-9.201-1.747
							c-6.566,0-9.852,2.272-9.852,6.83c0,4.23,1.902,7.962,5.709,11.191l18.459,15.561c6.535,4.67,9.809,9.966,9.809,15.905
							c0,5.127-2.887,9.208-8.676,12.275c-4.908,2.642-11.129,3.956-18.686,3.956c-4.826,0-8.982-1.151-12.463-3.468
							c-0.969-0.645-1.865-0.97-2.703-0.97c-1.389,0-2.416,0.77-3.092,2.322c-0.201,0.45-0.301,0.988-0.301,1.646h-0.965
							l0.295-15.079h0.971c0,0.771,0.162,1.69,0.475,2.755c0.809,2.666,2.512,5.213,5.121,7.636c1.295,1.189,3.055,2.185,5.27,2.992
							c2.217,0.802,4.695,1.214,7.393,1.214c3.549,0,6.404-0.888,8.557-2.653c2.229-1.847,3.336-4.087,3.336-6.723
							c0-4.225-1.357-7.486-4.055-9.771l-18.467-15.555c-5.701-4.807-8.557-10.152-8.557-16.049c0-4.576,2.342-8.301,7.012-11.167
							C637.193,221.457,642.27,220.187,648.297,220.187z"/>
					</g>
				</g>
				<path fill="#FFFFFF" d="M105.894,278.863l-16.625-51.04c-1.546-4.771-3.706-7.149-6.473-7.149H64.137v0.965
					c4.451,0,7.442,2.19,8.994,6.572l0.814,2.517l-15.698,48.136c-1.428,4.382-4.413,6.572-8.995,6.572v0.97h16.368v-0.97
					c-4.682,0-7.011-1.133-7.011-3.399c0-0.77,0.176-1.709,0.538-2.811l15.343-47.021l15.267,47.039
					c0.388,1.196,0.582,2.16,0.582,2.905c0,2.19-2.097,3.286-6.285,3.286v0.97h30.935v-0.97
					C110.344,285.436,107.315,283.245,105.894,278.863z"/>
				<path fill="#FFFFFF" d="M365.518,278.863l-16.637-51.04c-1.547-4.771-3.699-7.149-6.465-7.149h-18.661v0.965
					c4.444,0,7.443,2.19,8.982,6.572l0.826,2.517l-15.711,48.136c-1.415,4.382-4.407,6.572-8.982,6.572v0.97h16.355v-0.97
					c-4.669,0-7.01-1.133-7.01-3.399c0-0.77,0.188-1.709,0.538-2.811l15.349-47.021l15.26,47.039
					c0.395,1.196,0.582,2.16,0.582,2.905c0,2.19-2.09,3.286-6.285,3.286v0.97h30.941v-0.97
					C369.963,285.436,366.928,283.245,365.518,278.863z"/>
				<path fill="#FFFFFF" d="M539.063,278.863l-16.625-51.04c-1.545-4.771-3.705-7.149-6.484-7.149h-18.646v0.965
					c4.438,0,7.441,2.19,8.982,6.572l0.826,2.517l-15.713,48.136c-1.414,4.382-4.412,6.572-8.982,6.572v0.97h16.357v-0.97
					c-4.67,0-7.012-1.133-7.012-3.399c0-0.77,0.188-1.709,0.539-2.811l15.342-47.021l15.273,47.039
					c0.395,1.196,0.582,2.16,0.582,2.905c0,2.19-2.104,3.286-6.285,3.286v0.97h30.936v-0.97
					C543.508,285.436,540.477,283.245,539.063,278.863z"/>
			</g>
			<path fill="#FFFFFF" d="M304.839,283.508c-0.958-0.952-1.959-2.498-2.998-4.62l-10.51-21.858
				c4.525-1.614,8.093-3.906,10.754-6.86c2.653-2.974,3.975-6.303,3.975-9.978c0-6.315-2.629-11.142-7.887-14.497
				c-5.245-3.342-12.288-5.021-21.107-5.021h-32.875v0.965c4.97,0,7.536,1.966,7.737,5.896v51.127c0,4.52-2.579,6.773-7.737,6.773
				v0.97h30.923v-0.97c-5.146,0-7.725-2.254-7.725-6.773v-57.023h9.677c9.014,0,13.521,6.115,13.521,18.365
				c0,12.243-4.507,18.365-13.521,18.365h-1.509l10.097,20.875c2.122,4.776,4.407,7.161,6.848,7.161h18.335v-0.97
				C308.125,285.436,306.123,284.797,304.839,283.508z"/>
			<g>
				<path fill="#FFFFFF" d="M138.093,278.644v-50.245c0-4.507,2.578-6.76,7.73-6.76v-0.965h-30.929v0.965
					c5.158,0,7.737,2.253,7.737,6.76v50.264c0,4.52-2.579,6.773-7.737,6.773v0.97h30.929v-0.97
					C140.671,285.436,138.093,283.169,138.093,278.644z"/>
				<path fill="#FFFFFF" d="M176.038,284.472c-0.938-0.645-2.141-2.517-3.624-5.608l-17.902-35.717l11.78-14.961
					c2.386-3.017,4.169-4.857,5.364-5.539c1.19-0.67,2.88-1.008,5.07-1.008v-0.965h-16.399v0.965c4.419,0,6.635,0.901,6.635,2.704
					c0,0.832-0.525,2.003-1.603,3.48l-21.864,27.745l0.007-0.003l11.899,23.679c2.122,4.776,4.412,7.161,6.854,7.161h18.365v-0.97
					C178.498,285.436,176.97,285.11,176.038,284.472z"/>
			</g>
			<g>
				<path fill="#FFFFFF" d="M579.48,286.806c-4.814,0-9.289-0.857-13.289-2.554c-4.006-1.696-7.486-4.037-10.365-6.991
					c-2.904-2.955-5.17-6.46-6.791-10.429c-1.609-3.963-2.436-8.307-2.436-12.907c0-3.036,0.412-6.028,1.207-8.863
					c0.803-2.842,1.947-5.539,3.406-8.024c1.459-2.479,3.248-4.782,5.34-6.849c2.059-2.053,4.393-3.836,6.922-5.308
					c2.535-1.465,5.303-2.604,8.225-3.405c2.918-0.802,6.021-1.214,9.24-1.214c3.191,0,6.26,0.4,9.107,1.164
					c2.867,0.776,5.539,1.878,7.961,3.279c2.436,1.416,4.652,3.137,6.592,5.133c1.934,1.979,3.611,4.22,4.971,6.636
					c1.34,2.416,2.402,5.07,3.143,7.887c0.738,2.805,1.107,5.784,1.107,8.839c0,3.042-0.4,6.034-1.203,8.863
					c-0.807,2.854-1.953,5.546-3.41,7.999c-1.465,2.467-3.248,4.771-5.334,6.823c-2.064,2.053-4.395,3.844-6.936,5.295
					c-2.516,1.478-5.289,2.617-8.211,3.418C585.803,286.398,582.691,286.806,579.48,286.806L579.48,286.806z M580.207,221.013
					c-2.904,0-5.49,0.914-7.656,2.704c-2.104,1.74-3.873,4.131-5.244,7.123c-1.365,2.923-2.387,6.385-3.049,10.29
					c-0.658,3.863-0.982,8.038-0.982,12.407c0,4.406,0.324,8.588,0.982,12.443c0.67,3.881,1.684,7.336,3.049,10.253
					c1.371,2.986,3.141,5.384,5.244,7.118c2.166,1.796,4.752,2.703,7.656,2.703c2.922,0,5.508-0.907,7.68-2.703
					c2.098-1.734,3.855-4.138,5.246-7.118c1.332-2.904,2.365-6.366,3.029-10.253c0.658-3.868,0.988-8.062,0.988-12.443
					c0-4.351-0.33-8.525-0.988-12.407c-0.664-3.918-1.697-7.373-3.029-10.29c-1.391-2.979-3.148-5.383-5.246-7.123
					C585.709,221.927,583.129,221.013,580.207,221.013L580.207,221.013z"/>
			</g>
			<path fill="#FFFFFF" d="M581.965,291.457c-3.529-0.67-15.322-3.906-27.197,3.899c4.627-1.208,9.865,0.62,12.914,2.06
				c3.055,1.428,9.07,4.281,14.283,4.72c16.826,2.504,27.205-12.845,27.205-12.845C598.791,295.852,586.629,292.684,581.965,291.457
				z"/>
		</g>
	</g>
</g>
</svg>
