<?xml version="1.0" encoding="utf-8"?>
<!-- Generator: Adobe Illustrator 16.0.3, SVG Export Plug-In . SVG Version: 6.00 Build 0)  -->
<!DOCTYPE svg PUBLIC "-//W3C//DTD SVG 1.1//EN" "http://www.w3.org/Graphics/SVG/1.1/DTD/svg11.dtd">
<svg version="1.1" id="レイヤー_1" xmlns="http://www.w3.org/2000/svg" xmlns:xlink="http://www.w3.org/1999/xlink" x="0px"
	 y="0px" width="673px" height="83px" viewBox="0 0 673 83" enable-background="new 0 0 673 83" xml:space="preserve">
<g>
	<g>
		<g>
			<g>
				<g>
					<path fill="#141414" d="M22.969,0.388c3.092,0,5.745,0.419,7.974,1.252c2.267,0.807,4.395,1.207,6.385,1.207
						c2.06,0,3.093-0.656,3.093-1.972h0.964l0.914,14.886h-0.971c0-1.039-0.256-2.26-0.77-3.674
						c-0.501-1.422-1.352-2.986-2.542-4.695c-1.188-1.703-3.085-3.136-5.671-4.288c-2.591-1.177-5.652-1.747-9.188-1.747
						c-6.566,0-9.858,2.273-9.858,6.83c0,4.231,1.908,7.963,5.715,11.191l18.459,15.562c6.541,4.67,9.803,9.965,9.803,15.905
						c0,5.126-2.893,9.208-8.67,12.275c-4.9,2.642-11.129,3.956-18.685,3.956c-4.826,0-8.995-1.152-12.463-3.468
						c-0.977-0.645-1.878-0.971-2.717-0.971c-1.376,0-2.409,0.77-3.085,2.322c-0.194,0.45-0.295,0.989-0.295,1.646H0.397
						l0.288-15.079h0.971c0,0.77,0.156,1.69,0.476,2.754c0.819,2.667,2.517,5.214,5.126,7.637c1.29,1.189,3.042,2.185,5.271,2.992
						c2.222,0.801,4.695,1.214,7.393,1.214c3.543,0,6.391-0.889,8.551-2.653c2.222-1.847,3.342-4.088,3.342-6.724
						c0-4.225-1.352-7.485-4.062-9.771L9.292,31.422c-5.703-4.808-8.558-10.153-8.558-16.05c0-4.575,2.341-8.3,7.005-11.166
						C11.864,1.657,16.935,0.388,22.969,0.388z"/>
					<path fill="#141414" d="M235.591,33.737V8.6c0-4.507-2.586-6.761-7.737-6.761V0.875h16.438v0.964
						c-5.165,0-7.743,2.254-7.743,6.761v25.138c0,10.185-1.314,17.934-3.956,23.248c-3.355,6.723-9.127,10.091-17.302,10.091
						c-10.122,0-17.733-2.992-22.822-8.982c-4.119-4.864-6.179-12.344-6.179-22.416V8.6c0-4.507-2.584-6.761-7.736-6.761V0.875
						h30.929v0.964c-5.151,0-7.73,2.254-7.73,6.761v38.671c0,12.569,4.513,18.854,13.539,18.854c7.793,0,13.276-3.192,16.431-9.577
						C234.295,51.358,235.591,43.76,235.591,33.737z"/>
					<path fill="#141414" d="M396.748,0.875h20.455c1.014,0,1.785,0.376,2.291,1.151c0.584,0.789,1.391,2.793,2.41,6.022
						l15.455,47.747l9.34-28.643l-6.146-18.742c-1.354-4.381-4.357-6.572-8.996-6.572V0.875h30.854v0.964
						c-4.225,0-6.322,1.09-6.322,3.255c0,0.702,0.201,1.69,0.613,2.955l15.486,47.822l15.586-47.71
						c0.213-1.215,0.313-2.172,0.313-2.867c0-2.303-2.266-3.455-6.791-3.455V0.875h15.992v0.964c-4.568,0-7.574,2.191-8.988,6.572
						l-15.373,48.293l-3.129,9.902h-6.049c-2.734,0-4.744-1.916-5.996-5.752l-10.74-32.6l-8.914,28.437l-3.104,9.915h-6.047
						c-2.742,0-4.732-1.916-5.998-5.752L405.742,8.411c-1.346-4.381-4.35-6.572-8.994-6.572V0.875z"/>
					<path fill="#141414" d="M648.297,0.388c3.086,0,5.74,0.419,7.969,1.252c2.279,0.807,4.408,1.207,6.385,1.207
						c2.066,0,3.092-0.656,3.092-1.972h0.959l0.92,14.886h-0.951c0-1.039-0.27-2.26-0.775-3.674
						c-0.514-1.422-1.365-2.986-2.563-4.695c-1.188-1.703-3.072-3.136-5.65-4.288c-2.592-1.177-5.66-1.747-9.201-1.747
						c-6.568,0-9.854,2.273-9.854,6.83c0,4.231,1.902,7.963,5.709,11.191l18.459,15.562c6.535,4.67,9.809,9.965,9.809,15.905
						c0,5.126-2.887,9.208-8.676,12.275c-4.908,2.642-11.129,3.956-18.684,3.956c-4.828,0-8.982-1.152-12.465-3.468
						c-0.969-0.645-1.865-0.971-2.703-0.971c-1.389,0-2.416,0.77-3.092,2.322c-0.201,0.45-0.301,0.989-0.301,1.646h-0.963
						l0.293-15.079h0.971c0,0.77,0.162,1.69,0.477,2.754c0.807,2.667,2.51,5.214,5.119,7.637c1.295,1.189,3.055,2.185,5.271,2.992
						c2.215,0.801,4.693,1.214,7.393,1.214c3.549,0,6.402-0.889,8.555-2.653c2.23-1.847,3.338-4.088,3.338-6.724
						c0-4.225-1.359-7.485-4.057-9.771l-18.465-15.555c-5.703-4.808-8.557-10.153-8.557-16.05c0-4.575,2.34-8.3,7.01-11.166
						C637.193,1.657,642.27,0.388,648.297,0.388z"/>
				</g>
			</g>
			<path fill="#141414" d="M105.895,59.063L89.269,8.024c-1.546-4.771-3.705-7.149-6.473-7.149H64.137v0.964
				c4.451,0,7.442,2.191,8.995,6.572l0.813,2.518L58.248,59.063c-1.428,4.382-4.413,6.573-8.995,6.573v0.97h16.369v-0.97
				c-4.683,0-7.012-1.134-7.012-3.399c0-0.77,0.176-1.709,0.539-2.811l15.342-47.021l15.267,47.04
				c0.388,1.196,0.582,2.16,0.582,2.904c0,2.191-2.097,3.287-6.284,3.287v0.97h30.935v-0.97
				C110.345,65.637,107.315,63.445,105.895,59.063z"/>
			<path fill="#141414" d="M365.52,59.063L348.881,8.024c-1.545-4.771-3.699-7.149-6.465-7.149h-18.661v0.964
				c4.445,0,7.443,2.191,8.982,6.572l0.826,2.518l-15.711,48.135c-1.414,4.382-4.406,6.573-8.982,6.573v0.97h16.356v-0.97
				c-4.67,0-7.011-1.134-7.011-3.399c0-0.77,0.188-1.709,0.538-2.811l15.349-47.021l15.26,47.04c0.395,1.196,0.582,2.16,0.582,2.904
				c0,2.191-2.09,3.287-6.283,3.287v0.97h30.939v-0.97C369.963,65.637,366.928,63.445,365.52,59.063z"/>
			<path fill="#141414" d="M539.063,59.063L522.438,8.024c-1.545-4.771-3.705-7.149-6.484-7.149h-18.646v0.964
				c4.438,0,7.441,2.191,8.982,6.572l0.826,2.518l-15.711,48.135c-1.414,4.382-4.414,6.573-8.982,6.573v0.97h16.355v-0.97
				c-4.67,0-7.012-1.134-7.012-3.399c0-0.77,0.189-1.709,0.539-2.811l15.342-47.021l15.273,47.04
				c0.395,1.196,0.582,2.16,0.582,2.904c0,2.191-2.104,3.287-6.285,3.287v0.97h30.936v-0.97
				C543.508,65.637,540.479,63.445,539.063,59.063z"/>
		</g>
		<path fill="#141414" d="M304.84,63.708c-0.959-0.952-1.96-2.498-2.999-4.619l-10.51-21.858c4.525-1.614,8.094-3.906,10.754-6.86
			c2.654-2.974,3.975-6.303,3.975-9.978c0-6.315-2.629-11.142-7.887-14.497c-5.245-3.342-12.287-5.021-21.107-5.021h-32.875v0.964
			c4.971,0,7.537,1.967,7.737,5.896v51.128c0,4.52-2.579,6.773-7.737,6.773v0.97h30.923v-0.97c-5.146,0-7.725-2.254-7.725-6.773
			V1.839h9.677c9.014,0,13.521,6.115,13.521,18.366c0,12.243-4.508,18.365-13.521,18.365h-1.508l10.097,20.875
			c2.121,4.776,4.406,7.161,6.847,7.161h18.335v-0.97C308.125,65.637,306.123,64.997,304.84,63.708z"/>
		<g>
			<path fill="#141414" d="M138.093,58.845V8.6c0-4.507,2.578-6.761,7.73-6.761V0.875h-30.928v0.964
				c5.157,0,7.736,2.254,7.736,6.761v50.264c0,4.52-2.579,6.773-7.736,6.773v0.97h30.928v-0.97
				C140.671,65.637,138.093,63.37,138.093,58.845z"/>
			<path fill="#141414" d="M176.039,64.672c-0.939-0.645-2.142-2.516-3.625-5.608l-17.902-35.717l11.781-14.96
				c2.385-3.017,4.168-4.857,5.364-5.54c1.189-0.669,2.879-1.008,5.069-1.008V0.875h-16.398v0.964c4.418,0,6.635,0.902,6.635,2.705
				c0,0.832-0.526,2.002-1.603,3.48l-21.864,27.744l0.006-0.003l11.899,23.68c2.122,4.776,4.413,7.161,6.854,7.161h18.366v-0.97
				C178.498,65.637,176.971,65.311,176.039,64.672z"/>
		</g>
		<g>
			<path fill="#141414" d="M579.48,67.007c-4.813,0-9.289-0.857-13.289-2.554c-4.006-1.697-7.486-4.037-10.365-6.992
				c-2.904-2.954-5.17-6.459-6.791-10.428c-1.609-3.963-2.436-8.307-2.436-12.907c0-3.036,0.414-6.028,1.209-8.863
				c0.801-2.842,1.945-5.54,3.404-8.025c1.459-2.479,3.25-4.781,5.34-6.848c2.059-2.053,4.395-3.837,6.922-5.309
				c2.535-1.464,5.303-2.604,8.225-3.404c2.918-0.802,6.023-1.215,9.24-1.215c3.191,0,6.26,0.4,9.107,1.164
				c2.867,0.776,5.539,1.879,7.963,3.28c2.434,1.415,4.65,3.136,6.59,5.133c1.936,1.978,3.611,4.219,4.971,6.636
				c1.34,2.416,2.404,5.07,3.143,7.887c0.738,2.805,1.107,5.783,1.107,8.838c0,3.043-0.4,6.034-1.201,8.864
				c-0.807,2.854-1.953,5.545-3.412,7.999c-1.465,2.467-3.248,4.77-5.332,6.823c-2.066,2.053-4.395,3.843-6.936,5.295
				c-2.518,1.478-5.291,2.616-8.213,3.418C585.803,66.6,582.691,67.007,579.48,67.007L579.48,67.007z M580.207,1.214
				c-2.904,0-5.49,0.914-7.654,2.704c-2.104,1.739-3.875,4.131-5.246,7.123c-1.365,2.923-2.385,6.385-3.049,10.29
				c-0.656,3.862-0.982,8.037-0.982,12.406c0,4.407,0.326,8.588,0.982,12.444c0.67,3.881,1.684,7.336,3.049,10.253
				c1.371,2.985,3.143,5.384,5.246,7.117c2.164,1.796,4.75,2.704,7.654,2.704c2.924,0,5.508-0.908,7.68-2.704
				c2.098-1.733,3.857-4.138,5.246-7.117c1.334-2.904,2.365-6.366,3.029-10.253c0.658-3.868,0.988-8.063,0.988-12.444
				c0-4.35-0.33-8.525-0.988-12.406c-0.664-3.918-1.695-7.373-3.029-10.29c-1.389-2.979-3.148-5.384-5.246-7.123
				C585.709,2.128,583.131,1.214,580.207,1.214L580.207,1.214z"/>
		</g>
		<path fill="#141414" d="M581.967,71.657c-3.531-0.67-15.324-3.905-27.199,3.9c4.627-1.209,9.865,0.619,12.914,2.06
			c3.055,1.427,9.07,4.281,14.285,4.719c16.824,2.505,27.203-12.844,27.203-12.844C598.791,76.052,586.629,72.885,581.967,71.657z"
			/>
	</g>
</g>
</svg>
