<?xml version="1.0" encoding="utf-8"?>
<!-- Generator: Adobe Illustrator 23.0.2, SVG Export Plug-In . SVG Version: 6.00 Build 0)  -->
<svg version="1.1" id="レイヤー_1" xmlns="http://www.w3.org/2000/svg" xmlns:xlink="http://www.w3.org/1999/xlink" x="0px"
	 y="0px" viewBox="0 0 30 30" style="enable-background:new 0 0 30 30;" xml:space="preserve">
<style type="text/css">
	.st0{fill:#FFFFFF;}
</style>
<title>ico_globe_wh</title>
<g id="ico-lang">
	<path id="GLOBE_4" class="st0" d="M21.4,8.6c-3.5-3.5-9.2-3.5-12.7,0s-3.5,9.2,0,12.7s9.2,3.5,12.7,0c1.7-1.7,2.6-4,2.6-6.4
		C24,12.6,23.1,10.3,21.4,8.6z M13.4,7.5c-0.4,0.4-0.8,0.8-1.1,1.2c-0.6,0.7-1.1,1.5-1.5,2.4H8.3C9.4,9.2,11.3,7.9,13.4,7.5z
		 M7.7,12.3h2.7C10.2,13,10,13.7,10,14.4H7.2C7.3,13.7,7.4,13,7.7,12.3z M7.2,15.6H10c0,0.7,0.2,1.5,0.4,2.2H7.7
		C7.4,17,7.3,16.3,7.2,15.6z M8.3,18.9h2.6c0.4,0.9,0.9,1.7,1.5,2.4c0.4,0.4,0.7,0.8,1.1,1.2C11.3,22.1,9.4,20.8,8.3,18.9z
		 M14.4,21.8c-0.9-0.8-1.7-1.8-2.2-2.9h2.2V21.8z M14.4,17.7h-2.7c-0.2-0.7-0.4-1.4-0.4-2.2h3.2L14.4,17.7z M14.4,14.4h-3.2
		c0.1-0.7,0.2-1.5,0.4-2.2h2.7L14.4,14.4z M14.4,11.1h-2.2c0.6-1.1,1.3-2.1,2.2-2.9V11.1z M22.8,14.4H20c0-0.7-0.2-1.5-0.4-2.2h2.7
		C22.6,13,22.7,13.7,22.8,14.4z M21.7,11.1h-2.6c-0.4-0.9-0.9-1.7-1.5-2.4c-0.4-0.4-0.7-0.8-1.1-1.2C18.7,7.9,20.6,9.2,21.7,11.1z
		 M15.6,8.2c0.9,0.8,1.7,1.8,2.2,2.9h-2.2V8.2z M15.6,12.3h2.7c0.2,0.7,0.4,1.4,0.4,2.2h-3.2V12.3z M15.6,15.6h3.2
		c0,0.7-0.2,1.5-0.4,2.2h-2.7V15.6z M15.6,21.8v-2.9h2.2C17.2,20,16.5,21,15.6,21.8z M16.6,22.5c0.4-0.4,0.8-0.8,1.1-1.2
		c0.6-0.7,1.1-1.5,1.5-2.4h2.6C20.6,20.8,18.7,22.1,16.6,22.5L16.6,22.5z M22.4,17.7h-2.8c0.2-0.7,0.3-1.4,0.4-2.2h2.8
		C22.7,16.3,22.6,17,22.4,17.7L22.4,17.7z"/>
</g>
</svg>
