<?xml version="1.0" encoding="utf-8"?>
<!-- Generator: Adobe Illustrator 23.0.2, SVG Export Plug-In . SVG Version: 6.00 Build 0)  -->
<svg version="1.1" id="レイヤー_1" xmlns="http://www.w3.org/2000/svg" xmlns:xlink="http://www.w3.org/1999/xlink" x="0px"
	 y="0px" viewBox="0 0 30 30" style="enable-background:new 0 0 30 30;" xml:space="preserve">
<style type="text/css">
	.st0{fill:#FFFFFF;}
</style>
<title>ico_instagram_wh</title>
<path class="st0" d="M18.4,6.9h-6.8C9.1,6.9,7,8.9,7,11.5l0,0v7.1c0,2.5,2.1,4.6,4.6,4.6l0,0h6.8c2.5,0,4.6-2.1,4.6-4.6l0,0v-7.1
	C23,8.9,20.9,6.9,18.4,6.9L18.4,6.9z M8.6,11.5c0-1.7,1.3-3,3-3h6.8c1.7,0,3,1.3,3,3v7.1c0,1.7-1.3,3-3,3h-6.8c-1.7,0-3-1.3-3-3
	L8.6,11.5z"/>
<path class="st0" d="M15,19.2c2.3,0,4.2-1.9,4.2-4.2s-1.9-4.2-4.2-4.2s-4.2,1.9-4.2,4.2l0,0C10.8,17.3,12.7,19.2,15,19.2z M15,12.1
	c1.6,0,2.9,1.3,2.9,2.9s-1.3,2.9-2.9,2.9s-2.9-1.3-2.9-2.9v0C12.1,13.4,13.4,12.1,15,12.1C15,12.1,15,12.1,15,12.1z"/>
<circle class="st0" cx="19.3" cy="10.7" r="0.9"/>
</svg>
