<svg id="デザイン" xmlns="http://www.w3.org/2000/svg" xmlns:xlink="http://www.w3.org/1999/xlink" viewBox="0 0 414 334"><defs><style>.cls-1{fill:#1a1a1a;}</style><symbol id="ロゴ左上" data-name="ロゴ左上" viewBox="0 0 400 322.02"><path class="cls-1" d="M1.44,86.14V.72H13.68V37.31H28.79V.72H41V86.14H28.79v-38H13.68v38Z"/><path class="cls-1" d="M56.39,20.88a21.83,21.83,0,0,1,1.8-9.12A19.27,19.27,0,0,1,63,5.16a20.25,20.25,0,0,1,6.53-3.84A21.78,21.78,0,0,1,90.94,5.16a20.09,20.09,0,0,1,4.68,6.6,21.83,21.83,0,0,1,1.8,9.12V66a21.63,21.63,0,0,1-1.8,9.24,19,19,0,0,1-4.68,6.35,20.4,20.4,0,0,1-6.66,4,21.29,21.29,0,0,1-14.76,0,19.06,19.06,0,0,1-6.53-4,18.28,18.28,0,0,1-4.8-6.35A21.63,21.63,0,0,1,56.39,66ZM68.62,66q0,4.44,2.47,6.54a9.1,9.1,0,0,0,11.63,0q2.46-2.1,2.46-6.54V20.88q0-4.44-2.46-6.54a9.1,9.1,0,0,0-11.63,0q-2.48,2.1-2.47,6.54Z"/><path class="cls-1" d="M112.78,86.14V.72H125v39h.24l17.88-39h12.24L138.69,34.91l19.8,51.23h-13L131.61,48.23,125,60.59V86.14Z"/><path class="cls-1" d="M167.37,86.14V.72H179.6v39h.24l17.88-39H210L193.28,34.91l19.8,51.23h-13L186.2,48.23l-6.6,12.36V86.14Z"/><path class="cls-1" d="M215.72,86.14,234.79.72H245l19.08,85.42H251.83l-3.6-18.35H231.55L228,86.14ZM246,56.27l-6-31h-.24l-6,31Z"/><path class="cls-1" d="M274.63,86.14V.72h12.23V86.14Z"/><path class="cls-1" d="M304.74,86.14V.72h18.11q10.56,0,16,5.76t5.46,16.32v40q0,12-5.82,17.69t-16.74,5.7ZM317,12.24V74.63h5.64q5.14,0,7.31-2.58t2.16-8.1V22.8q0-5-2-7.8t-7.43-2.76Z"/><path class="cls-1" d="M359,20.88a21.83,21.83,0,0,1,1.8-9.12,19.27,19.27,0,0,1,4.8-6.6,20.35,20.35,0,0,1,6.53-3.84,21.78,21.78,0,0,1,21.42,3.84,20.09,20.09,0,0,1,4.68,6.6,21.83,21.83,0,0,1,1.8,9.12V66a21.63,21.63,0,0,1-1.8,9.24,19,19,0,0,1-4.68,6.35,20.4,20.4,0,0,1-6.66,4,21.29,21.29,0,0,1-14.76,0,19.15,19.15,0,0,1-6.53-4,18.28,18.28,0,0,1-4.8-6.35A21.63,21.63,0,0,1,359,66ZM371.2,66q0,4.44,2.47,6.54a9.1,9.1,0,0,0,11.63,0q2.46-2.1,2.46-6.54V20.88q0-4.44-2.46-6.54a9.1,9.1,0,0,0-11.63,0q-2.48,2.1-2.47,6.54Z"/><path class="cls-1" d="M16.67,203.72v-73.9H0V118.3H45.59v11.52H28.91v73.9Z"/><path class="cls-1" d="M56.39,138.45a21.81,21.81,0,0,1,1.8-9.11,19.27,19.27,0,0,1,4.8-6.6,20.25,20.25,0,0,1,6.53-3.84,21.78,21.78,0,0,1,21.42,3.84,20.09,20.09,0,0,1,4.68,6.6,21.81,21.81,0,0,1,1.8,9.11v45.12a21.62,21.62,0,0,1-1.8,9.23,19.06,19.06,0,0,1-4.68,6.36,20.58,20.58,0,0,1-6.66,4,21.29,21.29,0,0,1-14.76,0,19.21,19.21,0,0,1-6.53-4,18.32,18.32,0,0,1-4.8-6.36,21.62,21.62,0,0,1-1.8-9.23Zm12.23,45.12c0,3,.82,5.13,2.47,6.53a9.1,9.1,0,0,0,11.63,0c1.64-1.4,2.46-3.57,2.46-6.53V138.45q0-4.42-2.46-6.54a9.13,9.13,0,0,0-11.63,0q-2.48,2.11-2.47,6.54Z"/><path class="cls-1" d="M.72,256a21.83,21.83,0,0,1,1.8-9.12,19.14,19.14,0,0,1,4.8-6.59,20.21,20.21,0,0,1,6.54-3.85,21.73,21.73,0,0,1,21.41,3.85A20,20,0,0,1,40,246.91a21.83,21.83,0,0,1,1.8,9.12v4.32H29.51V256q0-4.44-2.46-6.54a8.68,8.68,0,0,0-5.82-2.1,8.63,8.63,0,0,0-5.81,2.1Q13,251.59,13,256v45.11q0,4.44,2.46,6.54a8.63,8.63,0,0,0,5.81,2.1,8.68,8.68,0,0,0,5.82-2.1q2.46-2.1,2.46-6.54V285.07H19.8v-10.8h22v26.87a21.63,21.63,0,0,1-1.8,9.24,19.06,19.06,0,0,1-4.68,6.36,20.58,20.58,0,0,1-6.66,4,21.26,21.26,0,0,1-14.75,0,19.16,19.16,0,0,1-6.54-4,18.32,18.32,0,0,1-4.8-6.36,21.63,21.63,0,0,1-1.8-9.24Z"/><path class="cls-1" d="M56.39,256a21.83,21.83,0,0,1,1.8-9.12,19.14,19.14,0,0,1,4.8-6.59,20.27,20.27,0,0,1,6.53-3.85,21.74,21.74,0,0,1,21.42,3.85,20,20,0,0,1,4.68,6.59,21.83,21.83,0,0,1,1.8,9.12v45.11a21.63,21.63,0,0,1-1.8,9.24,19.06,19.06,0,0,1-4.68,6.36,20.58,20.58,0,0,1-6.66,4,21.29,21.29,0,0,1-14.76,0,19.21,19.21,0,0,1-6.53-4,18.32,18.32,0,0,1-4.8-6.36,21.63,21.63,0,0,1-1.8-9.24Zm12.23,45.11q0,4.44,2.47,6.54a9.1,9.1,0,0,0,11.63,0q2.46-2.1,2.46-6.54V256q0-4.44-2.46-6.54a9.1,9.1,0,0,0-11.63,0q-2.48,2.1-2.47,6.54Z"/></symbol></defs><title>mod-header-title</title><use width="400" height="322.02" transform="translate(4 4.48)" xlink:href="#ロゴ左上"/></svg>