<?xml version="1.0" encoding="utf-8"?>
<!-- Generator: Adobe Illustrator 23.0.2, SVG Export Plug-In . SVG Version: 6.00 Build 0)  -->
<svg version="1.1" id="デザイン" xmlns="http://www.w3.org/2000/svg" xmlns:xlink="http://www.w3.org/1999/xlink" x="0px"
	 y="0px" viewBox="0 0 172 140" style="enable-background:new 0 0 172 140;" xml:space="preserve">
<style type="text/css">
	.st0{fill:#FFFFFF;}
</style>
<title>mod-header-titile-small</title>
<rect x="59.6" y="51.9" class="st0" width="111" height="85.8"/>
<path class="st0" d="M2,38.3V2.2h5.2v15.5h6.4V2.2h5.2v36.1h-5.2V22.3H7.2v16.1H2z"/>
<path class="st0" d="M25.3,10.7c0-1.3,0.2-2.6,0.7-3.8c0.5-1.1,1.1-2,2-2.8c0.8-0.7,1.8-1.3,2.8-1.6c2-0.7,4.2-0.7,6.2,0
	c1,0.4,2,0.9,2.9,1.6c0.9,0.8,1.5,1.7,2,2.8c0.5,1.2,0.8,2.5,0.8,3.8v19.1c0,1.3-0.2,2.7-0.8,3.9c-0.5,1-1.2,1.9-2,2.7
	c-0.8,0.7-1.8,1.3-2.8,1.7c-2,0.7-4.2,0.7-6.2,0c-1-0.4-2-0.9-2.8-1.7c-0.9-0.7-1.5-1.7-2-2.7c-0.5-1.2-0.8-2.6-0.8-3.9L25.3,10.7z
	 M30.5,29.8c-0.1,1,0.3,2,1,2.8c1.4,1.2,3.5,1.2,4.9,0c0.7-0.7,1.1-1.7,1-2.8V10.7c0.1-1-0.3-2-1-2.8c-1.4-1.2-3.5-1.2-4.9,0
	c-0.7,0.7-1.1,1.7-1,2.8L30.5,29.8z"/>
<path class="st0" d="M49.1,38.3V2.2h5.2v16.5h0.1L62,2.2h5.2l-7.1,14.5l8.4,21.7H63l-5.9-16l-2.8,5.2v10.8L49.1,38.3z"/>
<path class="st0" d="M72.2,38.3V2.2h5.2v16.5h0.1L85,2.2h5.2l-7,14.5l8.4,21.7h-5.5l-5.9-16l-2.8,5.2v10.8L72.2,38.3z"/>
<path class="st0" d="M92.7,38.3l8.1-36.1h4.3l8.1,36.1h-5.2l-1.5-7.8h-7l-1.5,7.8H92.7z M105.4,25.7l-2.5-13.1h-0.1l-2.5,13.1H105.4
	z"/>
<path class="st0" d="M117.6,38.3V2.2h5.2v36.1H117.6z"/>
<path class="st0" d="M130.3,38.3V2.2h7.7c3,0,5.2,0.8,6.8,2.4c1.6,1.9,2.5,4.4,2.3,6.9v16.9c0,3.4-0.8,5.9-2.5,7.5s-4,2.4-7.1,2.4
	H130.3z M135.5,7.1v26.4h2.4c1.1,0.1,2.3-0.3,3.1-1.1c0.7-1,1-2.2,0.9-3.4V11.6c0.1-1.2-0.2-2.3-0.9-3.3c-0.8-0.9-2-1.3-3.1-1.2
	H135.5z"/>
<path class="st0" d="M153.2,10.7c0-1.3,0.2-2.6,0.8-3.8c0.5-1.1,1.1-2,2-2.8c0.8-0.7,1.8-1.3,2.8-1.6c2-0.7,4.2-0.7,6.2,0
	c1,0.4,2,0.9,2.8,1.6c0.9,0.8,1.5,1.7,2,2.8c0.5,1.2,0.8,2.5,0.8,3.8v19.1c0,1.3-0.2,2.7-0.8,3.9c-0.5,1-1.2,1.9-2,2.7
	c-0.8,0.7-1.8,1.3-2.8,1.7c-2,0.7-4.2,0.7-6.2,0c-1-0.4-2-0.9-2.8-1.7c-0.9-0.7-1.5-1.7-2-2.7c-0.5-1.2-0.8-2.6-0.8-3.9L153.2,10.7z
	 M158.4,29.8c-0.1,1,0.3,2,1,2.8c1.4,1.2,3.5,1.2,4.9,0c0.7-0.7,1.1-1.7,1-2.8V10.7c0.1-1-0.3-2-1-2.8c-0.7-0.6-1.6-0.9-2.5-0.9
	c-0.9,0-1.8,0.3-2.5,0.9c-0.7,0.7-1.1,1.7-1,2.8V29.8z"/>
<path class="st0" d="M8.5,88.1V56.8h-7v-4.9h19.2v4.9h-7v31.3H8.5z"/>
<path class="st0" d="M25.3,60.5c0-1.3,0.2-2.6,0.7-3.8c0.5-1.1,1.1-2,2-2.8c0.8-0.7,1.8-1.3,2.8-1.6c2-0.7,4.2-0.7,6.2,0
	c1,0.4,2,0.9,2.8,1.6c0.9,0.8,1.5,1.7,2,2.8c0.5,1.2,0.8,2.5,0.8,3.8v19.1c0,1.3-0.2,2.7-0.8,3.9c-0.5,1-1.1,1.9-2,2.7
	C39,86.9,38,87.4,37,87.8c-2,0.7-4.2,0.7-6.2,0c-1-0.4-2-0.9-2.8-1.7c-0.9-0.7-1.5-1.7-2-2.7c-0.5-1.2-0.8-2.6-0.8-3.9L25.3,60.5z
	 M30.5,79.5c-0.1,1,0.3,2,1,2.8c1.4,1.2,3.5,1.2,4.9,0c0.7-0.7,1.1-1.7,1-2.8V60.5c0.1-1-0.3-2-1-2.8c-0.7-0.6-1.5-0.9-2.4-0.9
	c-0.9,0-1.8,0.3-2.5,0.9c-0.7,0.7-1.1,1.7-1,2.8L30.5,79.5z"/>
<path class="st0" d="M1.7,110.2c0-1.3,0.2-2.6,0.8-3.9c0.9-2.1,2.7-3.7,4.8-4.4c3.1-1.1,6.5-0.5,9.1,1.6c0.8,0.8,1.5,1.7,2,2.8
	c0.5,1.2,0.8,2.5,0.8,3.9v1.8h-5.2v-1.8c0.1-1-0.3-2-1-2.8c-0.7-0.6-1.6-0.9-2.5-0.9c-0.9,0-1.8,0.3-2.5,0.9c-0.7,0.7-1.1,1.7-1,2.8
	v19.1c-0.1,1,0.3,2,1,2.8c0.7,0.6,1.6,0.9,2.5,0.9c0.9,0,1.8-0.3,2.5-0.9c0.7-0.7,1.1-1.7,1-2.8v-6.8H9.8v-4.6h9.3v11.4
	c0,1.3-0.2,2.7-0.8,3.9c-0.5,1-1.2,1.9-2,2.7c-0.8,0.7-1.8,1.3-2.8,1.7c-2,0.7-4.2,0.7-6.2,0c-1-0.4-2-0.9-2.8-1.7
	c-0.9-0.7-1.5-1.7-2-2.7c-0.5-1.2-0.8-2.6-0.8-3.9L1.7,110.2z"/>
<path class="st0" d="M25.3,110.2c0-1.3,0.2-2.6,0.8-3.9c0.9-2.1,2.7-3.7,4.8-4.4c3.1-1.1,6.5-0.5,9,1.6c0.8,0.8,1.5,1.7,2,2.8
	c0.5,1.2,0.8,2.5,0.8,3.9v19.1c0,1.3-0.2,2.7-0.8,3.9c-0.5,1-1.2,1.9-2,2.7c-0.8,0.7-1.8,1.3-2.8,1.7c-2,0.7-4.2,0.7-6.2,0
	c-1-0.4-2-0.9-2.8-1.7c-0.9-0.7-1.5-1.7-2-2.7c-0.5-1.2-0.8-2.6-0.8-3.9L25.3,110.2z M30.5,129.3c-0.1,1,0.3,2,1,2.8
	c0.7,0.6,1.6,0.9,2.5,0.9c0.9,0,1.8-0.3,2.5-0.9c0.7-0.7,1.1-1.7,1-2.8v-19.1c0.1-1-0.3-2-1-2.8c-0.7-0.6-1.6-0.9-2.5-0.9
	c-0.9,0-1.8,0.3-2.5,0.9c-0.7,0.7-1.1,1.7-1,2.8V129.3z"/>
</svg>
